<mxfile host="app.diagrams.net" modified="2024-02-20T08:47:06.351Z" agent="Mozilla/5.0 (Macintosh; Intel Mac OS X 10_15_7) AppleWebKit/605.1.15 (KHTML, like Gecko) Version/17.2.1 Safari/605.1.15" version="23.1.5" etag="w0PXMcAxmgwoCz4dS1h5" type="github">
  <diagram name="Pagina-1" id="JSuOB0qH_aEUuRuIwBlh">
    <mxGraphModel>
      <root>
        <mxCell id="0" />
        <mxCell id="1" parent="0" />
      </root>
    </mxGraphModel>
  </diagram>
</mxfile>
